<svg width="90" height="36" viewBox="0 0 90 36" fill="none" xmlns="http://www.w3.org/2000/svg">
<path d="M27.5144 36L24.1198 27.0516H9.05164L5.65707 36H0L13.9369 0H19.594L33.4285 36H27.5144ZM13.8345 14.503L11.1084 21.7028H22.1143L19.2858 14.2972C18.8401 13.0968 18.3944 11.8025 17.9488 10.4143C17.5031 9.02602 17.0572 7.62896 16.611 6.2231C16.1306 7.66419 15.6593 9.10528 15.1971 10.5464C14.7349 11.9875 14.2807 13.3063 13.8345 14.503ZM40.4305 32.7143C40.2936 33.8071 39.4738 35.3331 38.2209 35.7894C38.5411 34.4452 38.5411 32.7367 38.5411 30.732V20.9831C38.5411 19.6853 38.2209 19.0016 37.1289 18.546V18.5004H40.5458V27.5664C41.0014 25.8123 42.5273 24.2631 44.6681 24.2631C47.4703 24.2631 49.748 26.3591 49.748 29.9354C49.748 33.4885 47.4703 35.7894 44.6681 35.7894C42.5273 35.787 40.8877 34.4676 40.4305 32.7143ZM44.006 25.2431C42.3664 25.2431 40.5442 26.701 40.5442 29.1836V30.8465C40.5442 33.3284 42.3664 34.8095 44.006 34.8095C46.1677 34.8095 47.5367 32.8736 47.5367 29.9354C47.5383 27.0196 46.1717 25.2431 44.0076 25.2431H44.006ZM62.7314 34.7871C62.3439 35.3331 61.6154 35.7438 60.681 35.7438C59.4513 35.7438 58.7684 34.9432 58.6539 33.7423C58.6539 33.651 58.6083 32.8993 58.6083 32.6487C58.3577 34.2435 56.7181 35.7238 54.8046 35.7238C53.0048 35.7238 51.5702 34.8127 51.5702 32.8993C51.5702 30.4622 54.1441 29.893 56.8542 29.3918L58.5851 29.0716V27.7714C58.5851 26.1085 57.8109 24.6963 55.9431 24.6963C54.257 24.6963 53.6213 25.5617 53.6213 26.5641C53.6213 27.2702 54.0312 27.7714 54.6685 27.7714C54.7711 27.7704 54.8722 27.7469 54.9647 27.7025C54.851 28.3862 54.3242 28.7281 53.6669 28.7281C52.7326 28.7281 52.0041 28.1132 52.0041 27.0652C52.0041 25.5849 53.5981 24.2631 55.9447 24.2631C58.9069 24.2631 60.6818 25.4024 60.6818 28.1132C60.6818 30.1404 60.6138 31.6431 60.6138 33.033C60.6138 34.2859 61.0942 34.9232 62.0485 34.9232C62.2886 34.9253 62.5248 34.8625 62.7322 34.7414L62.7314 34.7871ZM57.0599 29.7985C54.8046 30.2308 53.711 31.0515 53.711 32.6687C53.711 34.1722 54.554 34.7182 55.6476 34.7182C57.0823 34.7182 58.4946 33.5109 58.5402 31.3933L58.5859 29.5023L57.0599 29.7985ZM71.3659 26.5641C71.3659 25.9492 70.9104 25.5161 70.1362 25.5161C68.587 25.5161 67.2436 27.7714 67.2436 30.4366V33.0786C67.2436 34.5821 67.9265 35.1281 69.2251 35.5156V35.5613H63.9411V35.5156C65.0347 35.0601 65.2397 34.5821 65.2397 33.0786V26.974C65.2397 25.6754 64.9194 24.9925 63.8274 24.5369V24.4913H67.2444V28.3182C67.7456 26.1766 68.9297 24.2631 70.9568 24.2631C72.1641 24.2631 73.0752 24.9925 73.0752 26.0853C73.0752 27.3383 72.1641 27.8851 71.4356 27.8851C71.0937 27.8851 70.7951 27.7482 70.6838 27.5888C70.8908 27.5114 71.0681 27.3707 71.1906 27.1868C71.313 27.0028 71.3744 26.7849 71.3659 26.5641V26.5641ZM38.2865 7.0085H36.7277V6.87479L38.2865 6.38482V5.07103C38.2865 1.81977 40.0014 0.507584 42.2952 0.507584C44.0317 0.507584 45.3238 1.17609 45.3238 2.40021C45.3238 3.13517 44.789 3.71401 43.898 3.71401C43.4528 3.71401 43.0974 3.55869 42.874 3.24645C43.2967 3.11355 43.6746 2.89018 43.6746 2.17765C43.6746 1.33141 43.1182 0.863853 42.2944 0.863853C40.6235 0.863853 40.2456 2.44505 40.2456 4.38651V6.42966H43.2327L43.1214 7.0085H40.2464V14.8256C40.2464 16.2947 40.9141 16.8271 42.1839 17.2082V17.2522H37.0168V17.2082C38.0856 16.7623 38.2865 16.2947 38.2865 14.8256V7.0085ZM55.5484 16.4925C55.1697 17.0265 54.4571 17.4276 53.5469 17.4276C52.346 17.4276 51.6766 16.6478 51.5654 15.4677C51.5654 15.3788 51.5205 14.6439 51.5205 14.3989C51.2755 15.9577 49.6727 17.4051 47.8017 17.4051C46.0404 17.4051 44.6393 16.5149 44.6393 14.6439C44.6393 12.2613 47.1556 11.704 49.8056 11.2141L51.4981 10.9026V9.63608C51.4981 8.01085 50.7415 6.62981 48.9154 6.62981C47.2669 6.62981 46.644 7.47605 46.644 8.45599C46.644 9.14691 47.0443 9.63608 47.668 9.63608C47.7683 9.63543 47.8673 9.61275 47.9578 9.56963C47.8466 10.2381 47.3342 10.572 46.6881 10.572C45.7754 10.572 45.0628 9.97073 45.0628 8.94596C45.0628 7.49847 46.6216 6.20709 48.9154 6.20709C51.8103 6.20709 53.5469 7.32073 53.5469 9.96993C53.5469 11.9514 53.4804 13.4213 53.4804 14.78C53.4804 16.0049 53.948 16.6286 54.8831 16.6286C55.1179 16.6304 55.3489 16.5688 55.5516 16.45L55.5484 16.4925ZM50.0034 11.6152C47.7985 12.0387 46.7297 12.8401 46.7297 14.4173C46.7297 15.8872 47.5535 16.4188 48.6223 16.4188C50.0258 16.4188 51.406 15.2387 51.4509 13.1675L51.4949 11.319L50.0034 11.6152ZM58.3985 11.704C58.3985 14.7103 60.0237 16.47 62.0949 16.47C63.8562 16.47 65.2573 15.5566 65.9034 13.7088L66.0363 13.7528C65.6136 16.1362 63.8546 17.4724 61.4488 17.4724C58.8661 17.4724 56.2385 15.5566 56.2385 12.0387C56.2385 8.40875 58.8661 6.20389 61.8723 6.20389C64.2742 6.20389 65.7913 7.49526 65.7913 8.94276C65.7913 9.96753 65.0572 10.6128 64.1437 10.6128C63.3647 10.6128 62.7826 10.1228 62.7826 9.58884C62.9121 9.63047 63.047 9.65286 63.1829 9.65529C63.8066 9.65529 64.2077 9.21016 64.2077 8.45439C64.2077 7.47445 63.5168 6.65062 61.8691 6.65062C59.7788 6.65223 58.3985 8.78984 58.3985 11.7072V11.704ZM70.5573 14.8264C70.5573 16.2955 70.7575 16.7631 71.8263 17.209V17.253H67.3309V17.209C68.3997 16.7631 68.6006 16.2955 68.6006 14.8264V8.85709C68.6006 7.58733 68.2884 6.91963 67.2196 6.47449V6.42966H70.5573V14.8264ZM69.4437 1.24094C70.2443 1.24094 70.8463 1.84219 70.8463 2.62198C70.8463 3.40177 70.2451 4.00302 69.4437 4.00302C68.6423 4.00302 68.0402 3.40177 68.0402 2.62278C68.0402 1.84379 68.6415 1.24094 69.4437 1.24094ZM84.3637 16.4925C83.9851 17.0265 83.2725 17.4276 82.3622 17.4276C81.1613 17.4276 80.492 16.6478 80.3807 15.4677C80.3807 15.3788 80.3359 14.6439 80.3359 14.3989C80.0909 15.9577 78.4881 17.4051 76.6171 17.4051C74.8558 17.4051 73.4547 16.5149 73.4547 14.6439C73.4547 12.2613 75.971 11.704 78.621 11.2141L80.3135 10.9026V9.63608C80.3135 8.01085 79.5569 6.62981 77.7307 6.62981C76.0823 6.62981 75.4594 7.47605 75.4594 8.45599C75.4594 9.14691 75.8597 9.63608 76.4834 9.63608C76.5837 9.63543 76.6826 9.61275 76.7732 9.56963C76.6619 10.2381 76.1495 10.572 75.5034 10.572C74.5908 10.572 73.8782 9.97073 73.8782 8.94596C73.8782 7.49847 75.437 6.20709 77.7307 6.20709C80.6257 6.20709 82.3622 7.32073 82.3622 9.96993C82.3622 11.9514 82.2958 13.4213 82.2958 14.78C82.2958 16.0049 82.7633 16.6286 83.6984 16.6286C83.9333 16.6304 84.1643 16.5688 84.3669 16.45L84.3637 16.4925ZM78.8188 11.6152C76.6139 12.0387 75.5451 12.8401 75.5451 14.4173C75.5451 15.8872 76.3689 16.4188 77.4377 16.4188C78.8412 16.4188 80.2214 15.2387 80.2662 13.1675L80.3103 11.319L78.8188 11.6152ZM88.2379 14.8224C88.2379 16.2915 88.4388 16.7591 89.5076 17.205V17.249H85.009V17.205C86.0778 16.7591 86.278 16.2915 86.278 14.8224V2.99987C86.278 1.73091 85.9666 1.0624 84.8977 0.617266V0.573233H88.2379V14.8224Z" fill="#191919"/>
</svg>
