<?xml version="1.0" standalone="no"?>
<svg xmlns="http://www.w3.org/2000/svg" viewBox="0 0 215.35468137942857 53" width="215.35468137942857" height="53"><rect fill="none" stroke="#ffbe48" stroke-width="3" width="212.35468137942857" height="50" x="1.5" y="1.5"></rect><g fill="#ff7c7c" color="#ff7c7c" transform="translate(12, 12) scale(0.3106822)"><svg width="78.494" height="93.343" x="0.0" y="0.0" viewBox="0 0 78.494 93.343"><g><g><path d="M29.772,62.251c-1.037,0-2.286-0.347-3.771-1.254l0,0c-2.594-1.586-15.195-9.244-21.579-13.22l0,0    c-2.156-1.349-3.507-2.187-3.788-2.445l0,0C0.446,45.14,0,44.799,0,44.157l0,0c0.033-0.89,0.675-1.939,2.732-4.25l0,0    c1.727-1.92,6.853-7.493,12.124-12.597l0,0c5.333-5.099,10.543-9.736,13.233-9.829l0,0c0.037,0,0.07,0.002,0.089,0.002l0,0    c0.925,0.043,2.478,0.325,4.43,0.748l0,0c0.198,0.043,0.343,0.212,0.355,0.413l0,0l0.388,6.558l10.137,4.054l5.963-5.006    c0.155-0.132,0.38-0.143,0.547-0.025l0,0l3.54,2.476l0.292-2.377c0.017-0.13,0.089-0.246,0.198-0.32l0,0    c0.109-0.072,0.245-0.093,0.374-0.058l0,0c0.632,0.182,0.989,0.285,0.989,0.285l0,0l0.188,0.107    c0.011,0.011,20.551,19.78,22.324,21.747l0,0l-0.334,0.302l-0.335,0.299c-0.832-0.925-6.427-6.376-11.778-11.56l0,0    c-4.973-4.815-9.751-9.417-10.421-10.062l0,0c-0.081-0.023-0.208-0.059-0.375-0.106l0,0l-0.318,2.597    c-0.019,0.155-0.119,0.292-0.265,0.355l0,0c-0.142,0.064-0.312,0.049-0.439-0.042l0,0l-3.873-2.708l-5.904,4.959    c-0.128,0.105-0.302,0.134-0.457,0.072l0,0l-10.65-4.261c-0.161-0.066-0.273-0.219-0.283-0.393l0,0l-0.384-6.499    c-1.773-0.379-3.196-0.625-3.955-0.658l0,0c-0.017,0-0.029,0-0.041,0l0,0c-1.84-0.093-7.421,4.495-12.607,9.577l0,0    c-5.246,5.077-10.366,10.643-12.08,12.549l0,0c-2.045,2.245-2.534,3.321-2.501,3.649l0,0c0,0.192,0.087,0.258,0.37,0.539l0,0    c0.008,0.029,1.528,1.019,3.626,2.317l0,0c2.125,1.324,4.945,3.057,7.851,4.839l0,0c5.816,3.563,11.992,7.32,13.722,8.378l0,0    c1.384,0.845,2.473,1.123,3.303,1.123l0,0c1.167-0.004,1.875-0.547,2.264-1.021l0,0c0.771-0.967,23.265-28.84,23.265-28.84l0,0    c0.08-0.099,0.198-0.159,0.324-0.167l0,0c0.126-0.008,0.249,0.037,0.341,0.126l0,0c0,0.002,13.455,13.072,16.921,16.541l0,0    c1.004,1.002,1.936,1.339,2.684,1.341l0,0c1.218-0.002,2.021-0.917,2.023-1.741l0,0c-0.002-0.314-0.104-0.62-0.359-0.907l0,0    l0.335-0.299l0.334-0.302c0.399,0.444,0.593,0.983,0.591,1.508l0,0c-0.008,1.385-1.249,2.637-2.924,2.639l0,0    c-1.031,0.002-2.193-0.475-3.319-1.603l0,0C69.128,45.504,57.836,34.525,55.69,32.44l0,0    c-2.705,3.355-22.239,27.562-22.952,28.457l0,0c-0.513,0.641-1.492,1.354-2.953,1.354l0,0    C29.781,62.251,29.777,62.251,29.772,62.251L29.772,62.251z"></path></g><g><path d="M60.19,12.957c-0.268-0.297-1.478-1.482-2.937-2.896c-0.045-0.334-0.222-0.641-0.498-0.844L55.172,8.05    c-2.215-2.134-4.317-4.146-4.317-4.146s-9.528-3.297-11.503-3.382C37.378,0.437,29.48,9.315,27.934,11.03    c-1.546,1.716-1.202,1.889-0.944,2.147c0.106,0.106,1.883,0.866,4.043,1.789l0.631,10.62c0.029,0.487,0.333,0.911,0.788,1.094    l10.653,4.26c0.01,0.004,0.02,0.002,0.029,0.006c0.142,0.052,0.288,0.085,0.435,0.085c0.001,0,0.001,0,0.002,0c0,0,0,0,0.001,0    c0.137,0,0.27-0.027,0.397-0.07c0.04-0.013,0.074-0.036,0.113-0.053c0.086-0.039,0.168-0.082,0.243-0.139    c0.018-0.013,0.039-0.018,0.056-0.032l5.431-4.561l3.363,2.353c0.361,0.253,0.83,0.297,1.232,0.118    c0.403-0.179,0.684-0.559,0.737-0.997l1.813-14.82c0.404,0.395,0.755,0.741,1.001,0.987C59.503,15.362,60.966,13.817,60.19,12.957    z M33.62,16.076c2.367,1.02,4.615,2.013,5.279,2.42c1.545,0.946,2.403,0.428,2.747,0c0.055-0.069,0.338-0.415,0.771-0.942    L42.328,27.92l-8.2-3.281L33.62,16.076z M52.899,25.267l-2.438-1.706c-0.468-0.328-1.096-0.301-1.532,0.068l-4.076,3.424    l0.107-12.595c2.051-2.495,4.48-5.447,5.533-6.727l4.175,3.075L52.899,25.267z"></path><path d="M40.478,19.548c-0.538,0-1.154-0.181-1.851-0.608l0,0c-1.241-0.769-9.198-4.054-11.332-5.025l0,0    c-0.342-0.173-0.433-0.173-0.674-0.371l0,0c-0.049-0.054-0.379-0.301-0.379-0.75l0,0c0.037-0.596,0.379-1.059,1.304-2.114l0,0    c1.158-1.282,5.843-6.554,9.029-9.161l0,0C37.67,0.655,38.482,0.043,39.321,0l0,0c0,0,0.004,0,0.01,0l0,0    c0.017,0,0.047-0.001,0.092,0.005l0,0c2.293,0.163,11.555,3.401,11.6,3.406l0,0l0.189,0.115c0.013,0.012,8.543,8.172,9.363,9.081    l0,0c0.232,0.256,0.35,0.581,0.348,0.891l0,0c-0.01,0.82-0.719,1.494-1.628,1.498l0,0c-0.561,0-1.162-0.264-1.706-0.81l0,0    c-1.28-1.282-5.237-5.1-6.52-6.337l0,0c-1.683,2.044-8.727,10.606-9.019,10.974l0,0c-0.272,0.347-0.809,0.726-1.562,0.726l0,0    C40.486,19.548,40.481,19.548,40.478,19.548L40.478,19.548z M27.382,12.803c0.08,0.039,0.198,0.097,0.346,0.163l0,0    c0.299,0.138,0.719,0.321,1.22,0.54l0,0c1.006,0.435,2.341,1.003,3.718,1.593l0,0c2.768,1.187,5.643,2.43,6.504,2.954l0,0    c0.579,0.354,1.008,0.456,1.307,0.456l0,0c0.412-0.004,0.633-0.186,0.761-0.336l0,0c0.352-0.443,9.383-11.418,9.385-11.422l0,0    c0.093-0.111,0.229-0.18,0.373-0.188l0,0c0.145-0.008,0.287,0.043,0.392,0.145l0,0c0.002,0.002,5.384,5.186,6.939,6.741l0,0    c0.402,0.402,0.736,0.505,0.969,0.505l0,0c0.382,0,0.585-0.291,0.585-0.455l0,0c-0.002-0.068-0.016-0.12-0.078-0.194l0,0    c-0.682-0.76-8.35-8.105-9.228-8.945l0,0c-0.491-0.169-2.595-0.889-4.89-1.618l0,0c-2.602-0.833-5.537-1.676-6.356-1.698l0,0    l-0.013-0.001c-0.005,0-0.014,0-0.033-0.003l0,0c-0.24,0.016-1.114,0.494-2.048,1.289l0,0c-1.019,0.831-2.226,1.976-3.419,3.176    l0,0c-2.391,2.401-4.726,5.021-5.497,5.876l0,0c-0.447,0.495-0.723,0.851-0.876,1.09l0,0c-0.092,0.145-0.132,0.231-0.149,0.278    l0,0c0.007,0.006,0.015,0.014,0.023,0.022l0,0C27.333,12.778,27.355,12.79,27.382,12.803L27.382,12.803z M50.665,7.457    l0.362-0.375L50.665,7.457L50.665,7.457z"></path></g><path d="M77.569,46.385c-1.731-1.922-22.301-21.723-22.301-21.723s-0.357-0.103-0.99-0.283l-0.381,3.114   c-0.001,0.001-0.002,0.002-0.003,0.003l-4.153-2.904l-6.169,5.181L32.92,25.512l-0.406-6.841c-1.939-0.422-3.495-0.701-4.354-0.738   C23.736,17.741,6.527,36.362,3.068,40.208c-3.461,3.844-2.691,4.229-2.116,4.807c0.116,0.116,1.075,0.734,2.546,1.657   c-0.026,0.193-0.036,0.39-0.006,0.592v-0.002l3.942,26.856c0.083,0.562,0.385,1.061,0.846,1.396l24.097,17.432   c0.014,0.01,0.031,0.013,0.045,0.022c0.159,0.109,0.331,0.197,0.516,0.26c0.026,0.009,0.051,0.015,0.077,0.022   c0.189,0.056,0.385,0.094,0.59,0.094c0.075,0,0.151-0.004,0.227-0.013c0.031-0.003,0.059-0.014,0.089-0.019   c0.074-0.011,0.146-0.027,0.22-0.047c0.063-0.017,0.126-0.034,0.187-0.057c0.03-0.012,0.062-0.016,0.092-0.028l31.783-13.33   c0.697-0.293,1.188-0.944,1.273-1.695l3.589-31.272l0.005-0.059c0.601,0.592,1.115,1.102,1.5,1.487   C76.03,51.769,79.3,48.311,77.569,46.385z M11.458,72.631L8.062,49.502c6.689,4.123,15.986,9.774,18.174,11.112   c0.902,0.551,1.697,0.876,2.396,1.044c-0.153,0.333-0.229,0.706-0.188,1.097l2.574,24.027L11.458,72.631z M48.607,79.195   c-0.006-6.268,0.787-9.961,1.737-11.941c0.987-1.976,1.82-2.283,2.713-2.485c0.196-0.037,0.361-0.052,0.5-0.052   c0.334,0.021,0.359,0.033,0.547,0.188c0.285,0.225,0.889,1.291,1.258,3.66c0.388,2.348,0.612,5.903,0.612,11.023l-7.34,3.078   C48.617,81.599,48.607,80.448,48.607,79.195z M66.892,46.444l-3.444,30.009l-4.124,1.729c-0.054-6.141-0.427-9.969-1.166-12.517   c-0.406-1.367-0.929-2.423-1.749-3.204c-0.814-0.793-1.93-1.121-2.851-1.103c-0.37,0-0.735,0.039-1.095,0.103   c-1.816,0.275-3.902,1.607-5.152,4.353c-1.287,2.739-2.052,6.844-2.06,13.38c0,1.806,0.019,3.421,0.054,4.868l-9.91,4.156   l-2.776-25.908c-0.055-0.511-0.294-0.952-0.637-1.282c0.159-0.136,0.297-0.276,0.407-0.414c0.742-0.93,21.796-27.022,23.188-28.747   l3.978,3.702c2.218,2.159,5.046,4.915,7.566,7.379L66.892,46.444z"></path><g><path d="M49.323,14.046c-0.01,0.227,0.167,0.366,0.395,0.314c0.228-0.054,0.423-0.278,0.436-0.503    c0.011-0.227-0.164-0.366-0.395-0.312C49.532,13.597,49.337,13.823,49.323,14.046z"></path><path d="M48.858,18.956c-0.022,0.406,0.297,0.659,0.709,0.564c0.413-0.098,0.765-0.504,0.785-0.911L48.858,18.956z"></path><path d="M52.166,17.646c0-0.004,0.016-0.256,0.031-0.591c0-0.008-0.514-0.026-0.751-0.091c-0.072-0.021-0.107-0.231-0.107-0.262    c0.031-0.603,0.057-1.077,0.057-1.087c0.021-0.929-0.719-1.5-1.677-1.278c-0.956,0.222-1.773,1.154-1.848,2.096    c-0.002,0.009-0.024,0.485-0.057,1.086c-0.002,0.032-0.07,0.271-0.157,0.332c-0.266,0.177-0.802,0.431-0.814,0.447    c-0.017,0.335-0.029,0.587-0.031,0.593L52.166,17.646z"></path></g></g></svg></g><line x1="46.887" y1="0" x2="46.887" y2="100%" stroke="#ffbe48" stroke-width="3"></line><path fill="#ff7c7c" fill-rule="nonzero" d="M0.43 11.26L0.34 7.73Q0 7.51 0 7.10Q0 6.70 0.26 6.36L0.26 6.36Q0.17 3.96 0.17 1.30L0.17 1.30Q0.31 0.72 0.61 0.46Q0.91 0.19 1.49 0.12L1.49 0.12Q4.66 0.26 8.35 0.26L8.35 0.26Q9.26 0.46 9.26 1.06L9.26 1.06Q9.26 2.06 7.30 2.23L7.30 2.23Q6.77 2.26 6.14 2.26L6.14 2.26L4.58 2.26Q4.13 2.26 2.06 2.06L2.06 2.06Q2.06 5.06 2.16 6.19L2.16 6.19Q3.43 6.22 7.06 6.22L7.06 6.22Q7.92 6.38 7.92 7.00Q7.92 7.61 7.22 7.94L7.22 7.94Q7.15 7.99 6.96 8.04L6.96 8.04L2.81 7.97Q2.42 7.97 2.18 8.02L2.18 8.02L2.28 12.14Q2.28 13.54 2.21 14.14L2.21 14.14L7.78 14.06Q8.54 14.18 8.54 14.71L8.54 14.71Q8.54 15.07 8.22 15.43Q7.90 15.79 7.46 15.89L7.46 15.89L1.32 15.98Q0.77 15.98 0.55 15.78Q0.34 15.58 0.34 15.10L0.34 15.10Q0.43 14.42 0.43 12.94L0.43 12.94L0.43 11.26ZM11.35 16.66L11.04 15.22Q10.68 14.95 10.68 14.63Q10.68 14.30 10.94 14.09L10.94 14.09Q10.49 10.66 10.49 6.22L10.49 6.22Q10.49 4.87 10.61 0.98L10.61 0.98Q10.73 0.62 11.10 0.36Q11.47 0.10 11.81 0.10Q12.14 0.10 12.22 0.12L12.22 0.12Q15.65 1.08 18.19 3.83Q20.74 6.58 20.86 10.42L20.86 10.42Q20.86 14.64 17.35 15.72L17.35 15.72Q16.34 16.03 15.23 16.03Q14.11 16.03 13.27 15.86L13.27 15.86Q13.37 16.06 13.37 16.38Q13.37 16.70 12.97 17.00Q12.58 17.30 12.04 17.30Q11.50 17.30 11.35 16.66L11.35 16.66ZM12.48 6.02L12.48 6.02Q12.48 10.22 12.96 13.99L12.96 13.99Q13.54 14.16 14.90 14.16Q16.27 14.16 17.53 13.70Q18.79 13.25 18.86 12.36L18.86 12.36Q18.94 11.69 18.94 11.33L18.94 11.33Q18.94 8.21 17.27 5.81Q15.60 3.41 12.60 2.16L12.60 2.16Q12.48 4.99 12.48 6.02ZM31.42 0.38Q31.75 0 32.16 0Q32.57 0 32.86 0.41L32.86 0.41Q33.26 2.50 33.26 5.09L33.26 5.09L33.26 6.91Q33.26 8.98 33.19 9.35Q33.12 9.72 33.05 10.18Q32.98 10.63 32.92 10.87Q32.86 11.11 32.74 11.52L32.74 11.52Q32.47 12.41 31.99 13.10L31.99 13.10Q31.27 14.45 30.10 15.22Q28.92 15.98 27.71 15.98Q26.50 15.98 25.21 14.93Q23.93 13.87 23.11 12.29L23.11 12.29Q21.86 9.84 21.86 6.65L21.86 6.65Q21.86 5.52 22.20 1.30L22.20 1.30Q22.37 0.91 22.72 0.61Q23.06 0.31 23.42 0.31L23.42 0.31Q23.95 0.31 24.07 1.03L24.07 1.03Q23.74 5.18 23.74 6.29L23.74 6.29Q23.74 8.93 24.77 10.97L24.77 10.97Q25.42 12.31 26.36 13.21Q27.31 14.11 28.22 14.11L28.22 14.11Q29.74 14.11 30.82 11.76L30.82 11.76Q31.27 10.94 31.32 9.14L31.32 9.14Q31.32 8.66 31.37 8.47L31.37 8.47L31.42 5.30Q31.42 3.10 31.08 1.27L31.08 1.27Q31.08 0.77 31.42 0.38ZM42.29 0.29L42.29 0.29Q43.90 0.29 45.84 0.91L45.84 0.91Q46.27 1.25 46.27 1.64Q46.27 2.04 45.88 2.34Q45.48 2.64 44.98 2.64L44.98 2.64Q43.68 2.30 42.55 2.30L42.55 2.30Q39.96 2.30 38.62 3.84Q37.27 5.38 37.27 8.40Q37.27 11.42 38.86 13.13L38.86 13.13Q39.67 14.02 40.80 14.02Q41.93 14.02 44.40 12.82L44.40 12.82Q45.26 12.41 45.55 12.41L45.55 12.41Q46.18 12.41 46.18 13.06Q46.18 13.70 45.58 14.14L45.58 14.14Q43.51 15.22 42.36 15.59Q41.21 15.96 40.37 15.96L40.37 15.96Q38.64 15.96 37.42 14.69L37.42 14.69Q35.23 12.34 35.23 8.27Q35.23 4.20 37.31 2.24Q39.38 0.29 42.29 0.29ZM53.59 0.17L53.59 0.17Q54.19 0.17 54.60 0.70Q55.01 1.22 55.66 2.88L55.66 2.88Q57.17 6.79 58.61 15.14L58.61 15.14Q58.63 15.24 58.63 15.42Q58.63 15.60 58.40 15.80Q58.18 16.01 57.76 16.01Q57.34 16.01 57.05 15.80Q56.76 15.60 56.66 15.13Q56.57 14.66 56.30 13.30L56.30 13.30Q55.73 10.25 55.54 10.13L55.54 10.13Q55.25 9.96 53.63 9.77Q52.01 9.58 51.48 9.58Q50.95 9.58 50.86 9.67L50.86 9.67Q50.42 10.06 49.68 15.50L49.68 15.50Q49.58 15.96 48.77 15.96Q47.95 15.96 47.95 15.26L47.95 15.26Q47.95 13.54 49.22 8.66Q50.50 3.79 51.34 2.21L51.34 2.21Q52.39 0.17 53.59 0.17ZM53.50 2.83L53.50 2.83Q53.14 2.83 52.25 4.96Q51.36 7.08 51.36 7.58L51.36 7.58Q51.36 7.70 51.41 7.75L51.41 7.75Q51.60 7.94 52.92 8.09Q54.24 8.23 54.67 8.23Q55.10 8.23 55.15 8.17Q55.20 8.11 55.20 7.79Q55.20 7.46 54.55 5.15Q53.90 2.83 53.50 2.83ZM60.14 0.41L60.14 0.41L69.86 0.26Q70.56 0.48 70.56 0.96L70.56 0.96Q70.56 2.16 69.58 2.16L69.58 2.16Q67.78 2.16 65.76 2.26L65.76 2.26Q65.64 4.32 65.64 5.36Q65.64 6.41 65.64 6.70L65.64 6.70L65.74 15.12Q65.74 15.86 65.35 15.98L65.35 15.98Q65.06 16.08 64.63 16.08L64.63 16.08Q63.94 16.08 63.86 15.29L63.86 15.29Q63.72 13.44 63.72 8.39Q63.72 3.34 63.86 2.30L63.86 2.30Q63.36 2.33 62.38 2.33Q61.39 2.33 59.93 2.30L59.93 2.30Q59.54 2.30 59.33 2.06Q59.11 1.82 59.11 1.48Q59.11 1.13 59.41 0.79Q59.71 0.46 60.14 0.41ZM72.71 0.72Q73.08 0.48 73.56 0.48Q74.04 0.48 74.16 1.03L74.16 1.03Q74.18 3.82 74.26 9.36L74.26 9.36Q74.26 12.74 74.06 15.10L74.06 15.10Q74.02 15.46 73.62 15.73Q73.22 16.01 72.82 16.01L72.82 16.01Q72.14 16.01 72.14 15.31L72.14 15.31Q72.38 12.91 72.38 9.36L72.38 9.36L72.24 1.30Q72.34 0.96 72.71 0.72ZM83.30 0.02L83.30 0.02Q84.98 0.02 86.16 1.10L86.16 1.10Q88.46 3.17 88.46 7.62Q88.46 12.07 85.92 14.62L85.92 14.62Q84.60 15.89 82.87 16.01L82.87 16.01Q80.59 16.01 79.32 14.45Q78.05 12.89 77.51 10.96Q76.97 9.02 76.97 7.22L76.97 7.22Q76.97 4.15 78.43 2.16L78.43 2.16Q79.97 0.02 83.30 0.02ZM83.14 2.02L83.14 2.02Q79.92 2.02 79.13 5.06L79.13 5.06Q78.89 5.88 78.89 7.15Q78.89 8.42 79.37 10.10L79.37 10.10Q80.02 12.36 81.29 13.27L81.29 13.27Q82.03 13.85 83.09 13.85Q84.14 13.85 84.98 12.90Q85.82 11.95 86.14 10.49Q86.45 9.02 86.45 7.54L86.45 7.54Q86.45 4.90 85.69 3.46Q84.94 2.02 83.14 2.02ZM99.46 0.24Q99.70 0.10 100.08 0.10Q100.46 0.10 100.78 0.42Q101.09 0.74 101.09 1.18L101.09 1.18Q101.09 10.56 101.17 12.52Q101.26 14.47 101.26 14.52L101.26 14.52Q101.26 15.05 100.97 15.52Q100.68 15.98 100.33 15.98Q99.98 15.98 99.80 15.95Q99.62 15.91 99.48 15.86Q99.34 15.82 99.19 15.67L99.19 15.67L98.95 15.43Q98.86 15.34 98.70 15.06Q98.54 14.78 98.45 14.62Q98.35 14.45 98.15 14.03Q97.94 13.61 97.26 12.31Q96.58 11.02 96.02 9.98L96.02 9.98Q94.13 6.50 92.50 4.49L92.50 4.49Q92.50 12.29 92.06 15.31L92.06 15.31Q91.99 15.89 91.18 15.89L91.18 15.89Q90.79 15.89 90.54 15.70Q90.29 15.50 90.29 15.07Q90.29 14.64 90.47 10.32Q90.65 6 90.65 4.93Q90.65 3.86 90.65 3.58L90.65 3.58Q90.65 1.85 90.91 1.63Q91.18 1.42 91.46 1.42L91.46 1.42Q92.78 1.42 95.50 5.74L95.50 5.74Q96.02 6.58 97.51 9.25Q99 11.93 99.29 12.55L99.29 12.55L99 2.59Q99 0.53 99.46 0.24L99.46 0.24ZM108.07 13.22L108.12 10.68Q107.26 10.82 105.67 10.82Q104.09 10.82 103.51 10.30Q102.94 9.77 102.94 8.00Q102.94 6.24 103.20 4.13Q103.46 2.02 103.79 1.02Q104.11 0.02 105.07 0.02L105.07 0.02Q105.72 0.02 105.82 0.58L105.82 0.58Q105.82 0.72 105.82 1.03Q105.82 1.34 105.67 1.92L105.67 1.92Q105.10 6.14 105.10 7.94L105.10 7.94Q105.10 8.38 105.12 8.66L105.12 8.66Q105.55 8.76 106.28 8.76Q107.02 8.76 108.14 8.62L108.14 8.62Q108.19 8.11 108.19 7.26Q108.19 6.41 108.22 5.83Q108.24 5.26 108.38 5.02Q108.53 4.78 109.21 4.78Q109.90 4.78 110.08 5.02Q110.26 5.26 110.26 5.68Q110.26 6.10 110.18 7.43Q110.11 8.76 110.11 14.93L110.11 14.93Q110.11 16.01 109.06 16.01L109.06 16.01Q109.01 16.01 108.96 16.01L108.96 16.01Q108.07 16.01 108.07 14.54L108.07 14.54L108.07 13.22ZM117.29 0.17L117.29 0.17Q117.89 0.17 118.30 0.70Q118.70 1.22 119.35 2.88L119.35 2.88Q120.86 6.79 122.30 15.14L122.30 15.14Q122.33 15.24 122.33 15.42Q122.33 15.60 122.10 15.80Q121.87 16.01 121.45 16.01Q121.03 16.01 120.74 15.80Q120.46 15.60 120.36 15.13Q120.26 14.66 120 13.30L120 13.30Q119.42 10.25 119.23 10.13L119.23 10.13Q118.94 9.96 117.32 9.77Q115.70 9.58 115.18 9.58Q114.65 9.58 114.55 9.67L114.55 9.67Q114.12 10.06 113.38 15.50L113.38 15.50Q113.28 15.96 112.46 15.96Q111.65 15.96 111.65 15.26L111.65 15.26Q111.65 13.54 112.92 8.66Q114.19 3.79 115.03 2.21L115.03 2.21Q116.09 0.17 117.29 0.17ZM117.19 2.83L117.19 2.83Q116.83 2.83 115.94 4.96Q115.06 7.08 115.06 7.58L115.06 7.58Q115.06 7.70 115.10 7.75L115.10 7.75Q115.30 7.94 116.62 8.09Q117.94 8.23 118.37 8.23Q118.80 8.23 118.85 8.17Q118.90 8.11 118.90 7.79Q118.90 7.46 118.25 5.15Q117.60 2.83 117.19 2.83ZM123.43 12.65L123.43 12.65L123.46 10.78L123.67 0.74Q123.67 0.46 123.98 0.29Q124.30 0.12 124.78 0.12L124.78 0.12Q125.93 0.12 125.93 0.94L125.93 0.94Q125.93 1.20 125.65 4.97Q125.38 8.74 125.38 9.48L125.38 9.48Q125.38 9.48 125.38 12.02L125.38 12.02Q125.38 13.82 125.62 13.99L125.62 13.99Q125.98 14.11 126.46 14.11L126.46 14.11L129.91 13.87Q131.04 13.87 131.04 14.69L131.04 14.69Q131.04 15.34 130.43 15.64Q129.82 15.94 129.22 15.97Q128.62 16.01 127.75 16.01L127.75 16.01Q123.98 16.01 123.67 15.77L123.67 15.77Q123.50 15.62 123.48 14.68Q123.46 13.73 123.44 13.34Q123.43 12.96 123.43 12.65ZM132.36 12.65L132.36 12.65L132.38 10.78L132.60 0.74Q132.60 0.46 132.91 0.29Q133.22 0.12 133.70 0.12L133.70 0.12Q134.86 0.12 134.86 0.94L134.86 0.94Q134.86 1.20 134.58 4.97Q134.30 8.74 134.30 9.48L134.30 9.48Q134.30 9.48 134.30 12.02L134.30 12.02Q134.30 13.82 134.54 13.99L134.54 13.99Q134.90 14.11 135.38 14.11L135.38 14.11L138.84 13.87Q139.97 13.87 139.97 14.69L139.97 14.69Q139.97 15.34 139.36 15.64Q138.74 15.94 138.14 15.97Q137.54 16.01 136.68 16.01L136.68 16.01Q132.91 16.01 132.60 15.77L132.60 15.77Q132.43 15.62 132.41 14.68Q132.38 13.73 132.37 13.34Q132.36 12.96 132.36 12.65Z" transform="translate(60.387 18.508)"></path></svg>