<svg width="333" height="88" viewBox="0 0 333 88" fill="none" xmlns="http://www.w3.org/2000/svg">
<path d="M31.2505 40.109L27.4852 30.1698H10.7593L6.99212 40.109H0.713482L16.1818 0.123764H22.4604L37.8145 40.109H31.2505ZM16.0695 16.2321L13.0424 24.2292H25.2573L22.1179 16.0036C21.6233 14.6708 21.1292 13.2332 20.6358 11.6909C20.1424 10.1486 19.6471 8.60001 19.1499 7.04503C18.6171 8.64444 18.0939 10.2438 17.5802 11.8433C17.0665 13.4427 16.5629 14.9056 16.0695 16.2321ZM81.2247 0.0875868H87.3891V40.0729H81.7384L58.5074 9.56981C58.7357 11.8928 58.9545 14.2062 59.1638 16.5101C59.3731 18.814 59.4777 21.1275 59.4777 23.4504V40.0729H53.3133V0.0875868H58.8499L82.0808 31.2266C81.7384 28.4467 81.5101 25.4478 81.3959 22.2299C81.2817 19.012 81.2247 16.0132 81.2247 13.2332V0.0875868ZM138.214 0.108531L123.602 22.2775V40.0995H117.437V22.3918L101.684 0.108531H109.104L120.634 16.6739L131.136 0.108531H138.214ZM203.436 0.245624L190.707 40.2309H186.426L176.152 15.9541L166.22 40.2309H162.054L149.325 0.245624H155.889L163.595 25.265C163.859 26.1789 164.099 27.0548 164.308 27.8926C164.517 28.7304 164.689 29.5301 164.85 30.2917C165.041 29.5301 165.269 28.7304 165.535 27.8926C165.802 27.0548 166.125 26.1599 166.506 25.2079L173.698 7.15737H179.227L186.19 25.2079C186.609 26.2361 186.951 27.1595 187.218 27.9783C187.484 28.797 187.712 29.5491 187.903 30.2346C188.017 29.5491 188.178 28.7875 188.388 27.9497C188.597 27.1119 188.873 26.1599 189.215 25.0936L196.807 0.245624H203.436ZM218.074 0.0704503H243.246V6.01112H224.239V16.5787H240.11V22.5193H224.243V34.1151H243.25V40.0557H218.078L218.074 0.0704503ZM288.983 34.0446V39.9853H264.097V0H270.261V34.0446H288.983ZM332.553 34.0446V39.9853H307.667V0H313.831V34.0446H332.553ZM106.023 86.4063H262.609H106.023ZM262.609 85.8351H106.023V86.9775H262.609V85.8351ZM274.004 82.3621C273.752 84.3689 272.249 87.1698 269.951 88.0076C270.535 85.5323 270.535 82.404 270.535 78.7253V60.8271C270.535 58.4452 269.951 57.1904 267.946 56.3545V56.2707H274.213V72.9122C275.048 69.6924 277.847 66.8497 281.774 66.8497C286.911 66.8497 291.097 70.6959 291.097 77.2611C291.097 83.7844 286.911 88.0076 281.774 88.0076C277.847 88 274.839 85.5742 274.004 82.3544V82.3621ZM280.564 68.6528C277.554 68.6528 274.213 71.3299 274.213 75.8883V78.9348C274.213 83.4931 277.554 86.2102 280.564 86.2102C284.533 86.2102 287.033 82.6572 287.033 77.2611C287.038 71.9011 284.533 68.6395 280.564 68.6395V68.6528ZM314.908 86.1702C314.198 87.1736 312.861 87.9276 311.148 87.9276C308.892 87.9276 307.638 86.4634 307.429 84.2471C307.429 84.0795 307.345 82.701 307.345 82.2402C306.887 85.1667 303.877 87.8857 300.368 87.8857C297.067 87.8857 294.434 86.2121 294.434 82.701C294.434 78.2264 299.156 77.1792 304.137 76.2615L307.313 75.675V73.2816C307.313 70.2351 305.893 67.6361 302.467 67.6361C299.375 67.6361 298.205 69.224 298.205 71.0634C298.205 72.3581 298.966 73.2797 300.127 73.2797C300.315 73.2781 300.501 73.2352 300.671 73.154C300.461 74.4088 299.501 75.0352 298.289 75.0352C296.576 75.0352 295.244 73.9061 295.244 71.9887C295.244 69.2697 298.169 66.8478 302.474 66.8478C307.906 66.8478 311.166 68.9422 311.166 73.9137C311.166 77.6362 311.04 80.3876 311.04 82.9466C311.04 85.2448 311.917 86.4158 313.671 86.4158C314.112 86.4195 314.545 86.3044 314.925 86.0826L314.908 86.1702ZM304.504 77.0136C300.368 77.8075 298.363 79.3137 298.363 82.2821C298.363 85.043 299.908 86.0464 301.913 86.0464C304.546 86.0464 307.136 83.8301 307.22 79.9401L307.303 76.4709L304.504 77.0136ZM329.866 71.0767C329.866 69.9476 329.031 69.1536 327.61 69.1536C324.769 69.1536 322.303 73.293 322.303 78.1846V83.0171C322.303 85.7779 323.557 86.7814 325.939 87.4916V87.5868H316.246V87.503C318.251 86.6671 318.626 85.7894 318.626 83.0285V71.8174C318.626 69.4335 318.042 68.1787 316.036 67.3428V67.259H322.303V74.285C323.222 70.3531 325.395 66.8421 329.113 66.8421C331.328 66.8421 333 68.1749 333 70.1875C333 72.4857 331.328 73.4891 329.992 73.4891C329.364 73.4891 328.822 73.2397 328.613 72.9465C328.992 72.8044 329.318 72.5462 329.543 72.2085C329.768 71.8709 329.881 71.4709 329.866 71.0653V71.0767ZM2.92242 68.3272H0V68.0778L2.92242 67.1581V64.6924C2.92242 58.5899 6.13975 56.1241 10.4397 56.1241C13.6988 56.1241 16.1209 57.377 16.1209 59.6771C16.1209 61.0556 15.1182 62.1428 13.4572 62.1428C12.622 62.1428 11.9541 61.8496 11.5356 61.2651C12.329 61.0137 13.0386 60.5967 13.0386 59.2582C13.0386 57.6702 11.996 56.7829 10.4492 56.7829C7.31747 56.7829 6.60779 59.7513 6.60779 63.3862V67.2324H12.1939L11.9865 68.3272H6.59828V82.9885C6.59828 85.7456 7.8521 86.749 10.2323 87.4592V87.543H0.542246V87.4592C2.54761 86.6233 2.92242 85.7456 2.92242 82.9885V68.3272ZM34.2471 86.1321C33.5374 87.1355 32.2018 87.8876 30.4895 87.8876C28.2348 87.8876 26.981 86.4253 26.7717 84.209C26.7717 84.0414 26.688 82.6629 26.688 82.204C26.2295 85.1287 23.2234 87.8458 19.7149 87.8458C16.4158 87.8458 13.7845 86.174 13.7845 82.6629C13.7845 78.1903 18.503 77.1411 23.4726 76.2272L26.6367 75.6426V73.2587C26.6367 70.2122 25.2173 67.617 21.7926 67.617C18.7027 67.617 17.5326 69.205 17.5326 71.0443C17.5326 72.3391 18.2937 73.2587 19.4543 73.2587C19.6418 73.2571 19.8268 73.2149 19.9965 73.135C19.7872 74.3879 18.8359 75.02 17.622 75.02C15.9097 75.02 14.5779 73.8928 14.5779 71.9735C14.5779 69.2564 17.5003 66.8325 21.8078 66.8325C27.2379 66.8325 30.4952 68.927 30.4952 73.8966C30.4952 77.6152 30.3696 80.3704 30.3696 82.9238C30.3696 85.222 31.2467 86.393 33.0009 86.393C33.4409 86.3969 33.8736 86.2811 34.2528 86.0578L34.2471 86.1321ZM23.8493 76.9793C19.7111 77.7733 17.7058 79.2775 17.7058 82.2554C17.7058 85.0125 19.2507 86.016 21.256 86.016C23.8874 86.016 26.4768 83.8015 26.5605 79.9134L26.6424 76.4461L23.8493 76.9793ZM39.5935 77.1468C39.5935 82.7886 42.6377 86.0959 46.5247 86.0959C49.8239 86.0959 52.4552 84.3823 53.6671 80.9131L53.9164 80.9969C53.1192 85.4638 49.82 87.9676 45.3108 87.9676C40.4649 87.9676 35.5371 84.3727 35.5371 77.7695C35.5371 70.9567 40.4649 66.8192 46.1042 66.8192C50.6096 66.8325 53.4636 69.2469 53.4636 71.9735C53.4636 73.8966 52.0842 75.1076 50.3737 75.1076C48.9106 75.1076 47.8261 74.1879 47.8261 73.1845C48.072 73.2647 48.3286 73.3071 48.5872 73.3102C49.7554 73.3102 50.5069 72.4743 50.5069 71.0538C50.5069 69.2145 49.2131 67.6684 46.1309 67.6684C42.1772 67.6589 39.5897 71.6708 39.5897 77.1468H39.5935ZM62.3907 82.998C62.3907 85.7551 62.7712 86.6329 64.7708 87.4688V87.5525H56.3346V87.4688C58.34 86.6329 58.7148 85.7551 58.7148 82.998V71.7964C58.7148 69.4145 58.1307 68.1616 56.1253 67.3238V67.2419H62.3907V82.998ZM60.2978 57.5026C60.8081 57.5109 61.3045 57.6699 61.7248 57.9596C62.1451 58.2493 62.4705 58.6569 62.6601 59.1311C62.8497 59.6052 62.895 60.1249 62.7904 60.6248C62.6858 61.1247 62.436 61.5825 62.0722 61.9408C61.7084 62.299 61.247 62.5417 60.7459 62.6383C60.2448 62.735 59.7263 62.6813 59.2555 62.484C58.7848 62.2867 58.3828 61.9545 58.1001 61.5293C57.8174 61.1041 57.6665 60.6048 57.6664 60.0941C57.6625 59.7488 57.7282 59.4062 57.8598 59.087C57.9914 58.7678 58.1861 58.4785 58.4323 58.2364C58.6784 57.9944 58.9708 57.8046 59.292 57.6785C59.6133 57.5524 59.9567 57.4926 60.3016 57.5026H60.2978ZM88.2815 86.1321C87.5718 87.1355 86.2362 87.8876 84.5238 87.8876C82.2692 87.8876 81.0154 86.4253 80.8061 84.209C80.8061 84.0414 80.7224 82.6629 80.7224 82.204C80.2638 85.1287 77.2577 87.8458 73.7493 87.8458C70.4501 87.8458 67.8188 86.174 67.8188 82.6629C67.8188 78.1903 72.5373 77.1411 77.507 76.2272L80.6805 75.6426V73.2587C80.6805 70.2122 79.2612 67.617 75.8364 67.617C72.7466 67.617 71.5765 69.205 71.5765 71.0443C71.5765 72.3391 72.3375 73.2587 73.4981 73.2587C73.6857 73.2571 73.8707 73.2149 74.0404 73.135C73.833 74.3879 72.8722 75.0143 71.6602 75.0143C69.9479 75.0143 68.616 73.8871 68.616 71.9678C68.616 69.2507 71.5384 66.8268 75.846 66.8268C81.276 66.8268 84.5333 68.9213 84.5333 73.8909C84.5333 77.6095 84.4077 80.3647 84.4077 82.9181C84.4077 85.2163 85.2849 86.3873 87.0391 86.3873C87.479 86.3912 87.9118 86.2754 88.291 86.0521L88.2815 86.1321ZM77.8837 76.9793C73.7493 77.7733 71.7439 79.2775 71.7439 82.2459C71.7439 85.003 73.2888 86.0064 75.2942 86.0064C77.9255 86.0064 80.515 83.792 80.5987 79.9039L80.6805 76.4366L77.8837 76.9793ZM95.5476 82.998C95.5476 85.7551 95.9281 86.6329 97.9277 87.4688V87.5525H89.4915V87.4688C91.4969 86.6329 91.8736 85.7551 91.8736 82.998V60.8043C91.8736 58.4223 91.2876 57.1694 89.2841 56.3335V56.2498H95.5476V82.998Z" fill="white"/>
</svg>
