<svg width="40" height="16" viewBox="0 0 40 16" fill="none" xmlns="http://www.w3.org/2000/svg">
<path d="M10.6549 0L9.37175 2.66667H0V0H10.6549ZM6.81873 8.01333L4.24436 13.3333H10.6763V16H2.96118H0L3.85754 8.01333H6.81873ZM14.6779 0H17.3456V2.66667H14.6779V0ZM23.9936 0C26.9403 0 29.3291 2.38781 29.3291 5.33333C29.3291 8.27885 26.9403 10.6667 23.9936 10.6667V8C25.4669 8 26.6613 6.80609 26.6613 5.33333C26.6613 3.86057 25.4669 2.66667 23.9936 2.66667H21.3259V0H23.9936ZM34.6645 13.3333H40V16H37.3323H31.9968V8H34.6645V13.3333Z" fill="#191919"/>
</svg>
